<?xml version="1.0" standalone="no"?>
<!DOCTYPE svg PUBLIC "-//W3C//DTD SVG 20010904//EN"
 "http://www.w3.org/TR/2001/REC-SVG-20010904/DTD/svg10.dtd">
<svg version="1.0" xmlns="http://www.w3.org/2000/svg"
 width="16.000000pt" height="16.000000pt" viewBox="0 0 16.000000 16.000000"
 preserveAspectRatio="xMidYMid meet">
<metadata>
Created by potrace 1.11, written by Peter Selinger 2001-2013
</metadata>
<g transform="translate(0.000000,16.000000) scale(0.018605,-0.018605)"
fill="#000000" stroke="none">
<path d="M364 844 c-189 -38 -318 -186 -329 -375 -5 -75 10 -141 49 -217 l27
-54 -30 -91 c-17 -51 -31 -95 -31 -98 0 -3 12 -5 28 -3 15 1 27 3 27 4 0 2 25
4 55 6 30 1 55 3 55 4 0 3 46 7 117 11 38 2 68 6 68 10 0 3 16 4 36 4 20 -1
55 2 78 7 22 5 47 9 54 10 6 1 12 6 12 11 0 6 3 8 6 4 10 -10 100 51 143 98
114 124 139 299 63 454 -27 56 -123 161 -148 161 -8 0 -14 4 -14 9 0 10 -120
49 -170 54 -19 2 -62 -2 -96 -9z"/>
</g>
</svg>
